<?xml version="1.0" encoding="utf-8"?>
<svg version="1.0" xmlns="http://www.w3.org/2000/svg" width="1920px" height="1080px" viewBox="0 0 1920 1080" preserveAspectRatio="xMidYMid meet">
 <g fill="#fff">
  <path d="M837.6 901.8 c-2.5 -3.6 -1.9 -9.2 2.3 -19.6 2.1 -5.3 7.9 -21.8 12.9 -36.7 12.8 -38.2 23.4 -67.9 27 -75.5 1.7 -3.6 5.6 -12.8 8.6 -20.5 11.2 -28.9 15.3 -39.1 17 -42.4 2 -3.8 3.8 -8.1 16.3 -38.6 10.5 -25.5 11.7 -29.3 10.2 -31.2 -1.6 -1.9 -7.4 -1.6 -16 0.8 -4.1 1.1 -13.5 3.1 -20.9 4.4 -21.5 3.8 -42.6 8.2 -50.5 10.4 -10.7 3 -43.2 9.4 -65 12.9 -3.3 0.5 -13.9 2.5 -23.5 4.4 -9.6 2 -22.9 4.5 -29.5 5.7 -22.3 4.1 -33 6.2 -43 8.6 -5.5 1.3 -14.5 3.1 -20.1 3.9 -5.6 0.8 -13.9 2.4 -18.5 3.6 -4.6 1.2 -9.7 2.5 -11.4 2.9 -2.6 0.6 -3 1.2 -3.3 4.4 -0.4 4.6 -3.5 7.2 -10.3 8.6 -2.7 0.6 -7.6 2.2 -10.9 3.6 -3.3 1.4 -7.1 2.5 -8.5 2.5 -1.4 0 -4.4 0.9 -6.6 2 -2.2 1.2 -5.9 2.5 -8.2 2.9 -6.6 1.4 -28 7 -30.2 7.9 -5.5 2.4 -12.7 4.2 -16.2 4.2 -2.1 0 -6.3 0.7 -9.3 1.5 -11.3 3.1 -29.9 6.6 -45.4 8.4 -24.1 2.7 -50.4 1 -63.1 -4.3 -3.2 -1.4 -3.5 -1.9 -3.5 -5.4 0 -2.2 0.6 -4.5 1.4 -5.2 0.8 -0.6 7.8 -2 15.5 -3 7.7 -1.1 20.1 -3 27.4 -4.4 7.4 -1.5 14.8 -2.6 16.4 -2.6 1.7 0 7.5 -1.1 12.8 -2.5 5.3 -1.4 13.2 -3 17.4 -3.6 4.2 -0.5 11.2 -1.6 15.6 -2.5 32.3 -6.1 36.9 -7.1 52.5 -10.9 7.4 -1.8 18.5 -4.3 24.5 -5.5 6.1 -1.2 22.3 -4.6 36 -7.7 13.8 -3 30 -6.4 36 -7.4 10.7 -1.9 25.2 -4.6 36.5 -6.8 30.6 -5.8 40.1 -7.4 45.8 -7.8 3.7 -0.2 10.1 -1.3 14.2 -2.3 4.1 -1.1 14 -3.1 22 -4.5 13.6 -2.5 19.5 -3.7 41.5 -8.6 10.2 -2.3 39.1 -8.1 54 -10.9 5.5 -1 11.3 -2.3 12.8 -2.9 1.6 -0.6 4.3 -1.1 6 -1.1 4.9 0 28.9 -7.9 31.3 -10.4 3.7 -3.7 11.8 -24.1 35.6 -88.6 16.4 -44.7 17.7 -49.6 14.7 -55.2 -1 -1.8 -1.7 -1.9 -6.4 -1.3 -8.6 1 -15.6 3.2 -18.2 5.7 -3.8 3.5 -11.9 21.2 -14.8 32.3 -1.4 5.4 -3.9 13.7 -5.5 18.4 -1.6 4.8 -3.6 11.5 -4.5 15.1 -2.8 11.1 -9.5 32.3 -11.7 36.8 -2.5 5.1 -7.1 9.2 -10.2 9.2 -3 0 -5.6 -3 -5.6 -6.3 0 -4.7 3 -26 5 -35.7 1.1 -5.2 2.7 -15 3.5 -21.6 0.8 -6.7 2.4 -16.1 3.4 -21 3.1 -14.5 3.5 -19.3 1.8 -20 -1.6 -0.6 -22.1 2.6 -35.7 5.6 -4.7 1 -11.6 2.2 -15.5 2.5 -3.8 0.4 -9.5 1.5 -12.5 2.5 -7.2 2.4 -27.2 7.4 -38.5 9.6 -9.7 1.9 -13.5 4.3 -13.5 8.6 0 5.6 2.1 24.6 3.1 27.6 2 6.2 3.8 4 8.9 -11.3 2.2 -6.5 4.7 -12.6 5.6 -13.7 3 -3.2 9.3 -1.8 14.1 3.4 3.5 3.7 6.1 10.6 10.8 29 2.5 9.5 5.3 19 6.2 21.1 1.8 4.2 3.2 4.4 10 1.6 2.6 -1 3.4 -1 4.7 0 2.4 2 1.9 5.3 -1.6 10.6 -5.2 7.9 -14.1 10.5 -20.6 5.9 -3.3 -2.3 -6 -8.3 -11.7 -25.8 -2.8 -8.8 -5.6 -16.1 -6.1 -16.3 -0.5 -0.2 -1.8 1.4 -2.9 3.4 -3.5 6.6 -10.4 15.3 -13.8 17.3 -9.3 5.7 -15.7 -0.6 -19.2 -19.2 -1.4 -7.4 -4.5 -30.5 -4.5 -33.5 0 -2.4 -10 -1.4 -28.5 2.7 -9.9 2.2 -20.5 4.5 -23.5 5 -3 0.6 -6.8 2.1 -8.3 3.3 -2.8 2.2 -2.9 2.4 -4.8 22.7 -2.5 27.3 -5.7 52 -7.5 58.1 -1 3.2 -2.9 6.4 -5.4 8.9 -7.5 7.5 -12.2 6.2 -13.4 -3.8 -0.3 -3.1 -1.4 -9.2 -2.3 -13.5 -2.6 -12.3 0.2 -22.8 6.6 -24.2 3.4 -0.7 3.4 -0.4 5.2 -26.9 0.9 -13 0.8 -16 -0.3 -16.8 -2.2 -1.4 -9.7 -0.4 -30.3 4.3 -11.3 2.5 -27.8 6.1 -46.3 9.9 -7.9 1.7 -17.6 3.9 -21.7 4.9 -4.1 1.1 -11.2 2.5 -15.7 3.1 -4.6 0.7 -11.7 1.8 -15.8 2.6 -4.1 0.7 -15.1 2.3 -24.5 3.5 -15.5 2 -18.4 2.1 -32.4 1 -13.9 -1 -16.1 -1.4 -22.3 -4.3 -3.8 -1.7 -7.6 -4.1 -8.4 -5.2 -1.9 -2.7 -1.8 -8.6 0.2 -11.4 2.1 -3 4.9 -2.8 13.5 1 l7.4 3.3 22.1 0.3 22.1 0.4 3.2 -4.1 c1.8 -2.2 8.2 -8.4 14.4 -13.8 6.2 -5.3 11.7 -10.2 12.2 -10.9 0.6 -0.6 2.6 -2.2 4.5 -3.5 1.9 -1.3 8.9 -6.9 15.5 -12.4 6.6 -5.6 13.8 -11.4 16.1 -13 17.1 -12.4 35.3 -26.6 55 -43 27.6 -23 35.8 -30.6 37.2 -34.3 1.4 -3.5 2.9 -33.2 4.2 -81.2 0.6 -21.2 1.5 -44.8 2 -52.5 0.6 -7.7 1.5 -19.8 2 -27 0.5 -7.1 1.3 -24.4 1.6 -38.4 l0.7 -25.4 -3.8 0.7 c-2.1 0.4 -8.3 2.5 -13.7 4.7 -5.4 2.1 -10.7 3.9 -11.9 3.9 -2.8 0 -40.3 19.9 -52.3 27.7 -5.5 3.6 -10.9 6.8 -12.1 7.3 -1.2 0.5 -5.7 3.7 -9.9 7.2 -4.3 3.4 -9.7 7.6 -12 9.2 -2.2 1.5 -6.8 5.4 -10.1 8.5 -3.3 3.2 -8.5 7.6 -11.6 9.8 -5.9 4.4 -11.2 10 -18.6 19.8 -8.9 11.7 -13.3 25.3 -13.8 42.3 -0.2 10.3 -0.5 11.5 -2.6 13.8 -4.1 4.3 -6.8 3 -10.9 -5.1 -3.1 -6.3 -3.5 -7.8 -3.5 -15 0.1 -6.8 0.6 -9.2 3.3 -15.5 3.7 -8.6 15.5 -25.7 19.2 -27.8 1.4 -0.8 4.4 -4 6.7 -7.1 6.1 -8.2 16.1 -19 20.3 -21.6 2 -1.3 7.7 -5.9 12.7 -10.3 5 -4.4 11.6 -9.6 14.6 -11.5 3.1 -2 7.9 -5.7 10.9 -8.4 5.1 -4.6 38 -23.4 52.8 -30.1 21.3 -9.7 27 -12.1 31 -13.1 2.5 -0.6 7 -2.3 10.2 -3.8 6.2 -2.8 6.8 -4.1 6.8 -13.4 0 -2.7 1 -8.4 2.2 -12.7 1.1 -4.2 2.9 -10.6 3.8 -14.1 3.3 -12.6 10 -14.9 14.9 -5.3 1 1.8 0.7 4.4 -1.4 13.6 -1.4 6.2 -2.5 13.9 -2.5 17.1 0 5 0.2 5.6 1.8 5 18.8 -7.6 37.1 -10.6 73.2 -12 16.4 -0.6 18.3 -0.5 31 2 14.4 2.8 15.3 3.2 29.9 10.1 6.4 3.1 11.2 6.3 15.2 10.1 l5.9 5.6 23.2 -23.5 c16.3 -16.4 26 -25.4 32.3 -29.8 5 -3.4 10.1 -7.3 11.5 -8.6 2.6 -2.4 12.2 -8.6 17 -10.9 19 -9.3 32 -13 45.5 -13 8.6 0.1 10.8 0.4 15.5 2.6 6 2.8 13.9 10.2 17.5 16.4 3.1 5.3 6.1 16.3 8.5 31.5 1.8 10.9 2 15.9 1.6 40 -0.4 24 -0.9 30.3 -3.6 49 -1.7 11.8 -4.2 26.1 -5.5 31.6 -1.4 5.6 -2.5 11.4 -2.5 12.9 0 1.6 -1.6 9.6 -3.5 17.9 -10.5 44.5 -10.9 46.3 -16.5 66.1 -3.4 11.7 -10 39.5 -10 41.7 0 2.4 5.5 3 17.2 1.9 10.7 -1 15.1 -2.1 16.3 -4.1 0.4 -0.6 1.5 -5.7 2.5 -11.3 2.6 -14.6 3.3 -15.9 7.2 -15.5 5 0.5 7 5 7.7 16.6 l0.6 9.6 3 0.8 c6.9 1.9 50.1 -4 54.2 -7.4 2.6 -2.1 12 -27 17.9 -47.3 2.6 -9 11.8 -35.4 19.5 -56 6.2 -16.6 19 -41.1 25 -47.8 4.5 -5.1 5.5 -5.7 8.9 -5.7 2.1 0 4.1 0.4 4.4 0.9 0.3 0.5 2.7 1.9 5.3 3.1 5.7 2.7 15.7 12.8 25.5 25.7 3.8 5.1 7.4 9.5 7.9 9.9 0.6 0.3 2.4 2.4 4 4.7 7.3 10.1 42 40.1 60.9 52.7 3.6 2.4 8.3 5.8 10.5 7.6 4 3.2 29.3 18.7 36.6 22.4 5.8 3 17.3 2.4 62.4 -3 33.8 -4 39.5 -3.9 42 1 2.5 4.8 1.9 6.6 -4.1 11.4 -4.7 3.9 -6.3 4.6 -9.9 4.6 -2.4 0 -6.5 0.4 -9.2 1 -2.6 0.5 -10 1.9 -16.3 3.1 -6.3 1.2 -13.5 3 -15.9 4.1 -3.8 1.6 -4.3 2.1 -3 3.3 1.2 1.2 9.2 5.8 19.4 11.2 10 5.2 25.7 13.2 44.8 22.9 43 21.6 72.6 39.5 85.1 51.3 9.2 8.8 11.8 16 7.6 21.3 -1.8 2.4 -24.2 14.5 -34.5 18.6 -12.8 5.2 -33.8 12.2 -39.6 13.2 -3.5 0.6 -8.8 1.8 -11.6 2.6 -5.1 1.5 -21.3 4.7 -42.3 8.3 -5.8 1 -22.6 4.2 -37.5 7 -14.8 2.9 -32.2 6 -38.5 7 -9.8 1.6 -32.4 5.7 -106 19.2 -6.3 1.2 -17.5 3.4 -24.8 5 -11 2.4 -34.4 6.7 -75.2 13.7 -4.8 0.8 -32.2 6.4 -91.2 18.6 -9.1 1.9 -18.4 3.9 -20.5 4.5 -2.1 0.6 -5.8 1.1 -8.3 1.1 -2.5 0 -7.4 0.7 -11 1.5 -3.6 0.9 -12.6 2.6 -20.1 4 -7.5 1.3 -15.4 2.8 -17.5 3.3 -2.2 0.6 -6.1 1.3 -8.9 1.7 -13.1 1.6 -26.9 4.9 -29.2 6.9 -2.5 2.2 -10.2 19.9 -19.3 44.2 -2.9 7.6 -6.7 17 -8.5 20.9 -1.8 3.8 -4 9.5 -5 12.5 -1 3 -3.4 9.1 -5.5 13.5 -6.8 14.4 -26.7 65.6 -36.9 95 -2.9 8.3 -5.8 15.9 -6.5 17 -0.7 1.1 -2.5 6.4 -4.1 11.7 l-2.7 9.8 3.2 2.7 c3.1 2.6 3.2 2.9 2.8 8.9 -0.3 5.6 -1 7.1 -5.3 13.6 -6 8.7 -15.8 19.4 -19.6 21.4 -4.1 2 -7.5 1.8 -9.3 -0.8z m134.6 -285.9 c5.7 -1.1 13.8 -2.4 18 -2.9 4.2 -0.5 9.1 -1.6 10.8 -2.5 1.7 -0.9 10.1 -2.5 18.6 -3.6 8.6 -1 20 -3 25.3 -4.4 5.3 -1.3 15 -3.3 21.6 -4.5 6.6 -1.1 12.6 -2.3 13.4 -2.6 3.4 -1.2 20.1 -4.6 26.8 -5.4 4 -0.5 11.1 -2.1 15.8 -3.4 4.7 -1.4 19.2 -4.6 32.2 -7.1 13.1 -2.5 41.8 -8.2 63.8 -12.5 22 -4.3 42 -8.2 44.5 -8.5 2.5 -0.4 8.8 -1.7 14 -3.1 5.3 -1.3 15.2 -3.2 22 -4.3 6.9 -1.1 17.5 -3.1 23.5 -4.5 6.1 -1.4 18.4 -3.7 27.5 -5.1 29.6 -4.7 94.6 -17.9 126.6 -25.6 17.8 -4.3 36.6 -10.4 45.3 -14.9 3.1 -1.5 10 -4.5 15.1 -6.4 13.6 -5.2 16 -6.4 16 -7.9 0 -3.5 -20 -19 -30.4 -23.6 -2.6 -1.1 -6 -3 -7.7 -4.1 -3.4 -2.5 -51.6 -27.8 -87.4 -46 -13.7 -6.9 -28 -14.6 -31.8 -16.9 -3.7 -2.4 -8.5 -4.5 -10.6 -4.8 -4.1 -0.6 -16.1 1.3 -33.3 5.3 -5.9 1.3 -13.4 2.4 -16.7 2.4 -3.5 0 -8 0.8 -10.8 1.9 -2.6 1 -6.6 2.1 -8.8 2.5 -2.2 0.4 -6.2 1.3 -9 2.1 -7.4 2.1 -23.3 5.2 -38 7.5 -7.1 1.1 -15.8 2.9 -19.1 3.9 -3.4 1.1 -9.9 2.5 -14.5 3.1 -4.6 0.6 -10.4 2 -12.9 3 -2.5 1 -6.7 2.1 -9.5 2.4 -2.7 0.4 -8.1 1.3 -12 2 -3.8 0.8 -10.8 2.2 -15.5 3 -4.7 0.9 -10.5 2.3 -13 3.1 -2.5 0.9 -8.3 2.4 -13 3.4 -4.7 1.1 -11.9 3.5 -16.2 5.4 -7.3 3.4 -7.8 3.8 -13.6 12.4 -3.3 4.8 -7.8 10.5 -10 12.6 -3.6 3.5 -4.5 3.9 -9.4 3.9 -6.9 0.1 -8.6 -0.9 -17.9 -9.8 -4.2 -4.1 -8.3 -7.4 -9 -7.4 -3 0.1 -10.2 2.1 -14.4 4.1 -4.4 2.1 -4.5 2.2 -7.9 12.8 -1.9 5.8 -5.3 17.8 -7.6 26.6 -4.9 18.2 -8.6 26.7 -14.5 33.1 -3.6 3.8 -4.7 4.4 -8.3 4.4 -3.4 0 -5.2 -0.9 -10.4 -4.8 -3.5 -2.7 -9.2 -8.4 -12.7 -12.8 -3.5 -4.3 -6.7 -8 -7.1 -8.2 -0.9 -0.4 -9.6 20.1 -12.3 28.8 -1 3.6 -3.1 8.7 -4.5 11.5 -1.3 2.7 -3.7 8.8 -5.2 13.5 -1.5 4.7 -5.6 15.7 -9 24.5 -10.1 26 -10.8 27.9 -10.3 29.3 0.6 1.6 1.4 1.6 13.5 -0.9z m-353 -81.5 c8.4 -1.9 29.9 -6.4 47.6 -10 33 -6.6 42.8 -9.2 44.8 -12 1.2 -1.5 2 -13.1 3.3 -50.9 0.5 -12.9 0.4 -21.2 -0.2 -21.6 -1.9 -1.3 -5.2 0.7 -27.9 17.8 -28.6 21.5 -34.8 26.9 -51.3 44.4 -7.1 7.5 -17.9 18 -24 23.2 -6 5.1 -11.6 10.1 -12.4 11 -1.2 1.5 -1 1.7 1.7 1.7 1.7 0 10 -1.6 18.4 -3.6z m412.5 -21.1 c0.3 -1 2.5 -6.5 4.9 -12.3 6.2 -15.1 14.4 -36.8 14.4 -38 0 -1.7 -11.4 -1.1 -17.5 1 -3.2 1.1 -6.8 2 -7.9 2 -7.8 0 -11 3 -14.6 13.6 l-2 5.7 4.2 9.6 c6.1 13.8 16.5 24.2 18.5 18.4z m-280.7 -5.9 c6.3 -1.4 18 -3.8 25.9 -5.4 13.6 -2.8 19.1 -4.8 19.1 -6.9 0 -1.6 5.1 -7.1 6.6 -7.1 0.8 0 3.3 1.4 5.7 3.1 3.8 2.8 4.7 3 9.2 2.4 2.8 -0.3 8.4 -1.5 12.5 -2.5 4.1 -1 9.8 -2.1 12.5 -2.5 5.5 -0.7 19.6 -3.3 38 -7 6.6 -1.4 19 -3.8 27.6 -5.4 21.4 -4 21.2 -3.9 23.8 -15.3 3 -12.9 7 -34.8 7.3 -40 l0.3 -4.3 -5 -0.3 c-19.6 -1 -54.5 -8 -70.5 -13.9 -12.5 -4.7 -25.2 -11.1 -32 -16.2 -11 -8.3 -21 -23.2 -22.6 -33.7 -0.3 -2.5 -1 -4.7 -1.5 -5 -0.5 -0.3 -3.5 2.3 -6.6 5.8 -7.1 7.9 -23.2 23.6 -48.4 47.4 -14.6 13.7 -19.8 19.1 -20.2 21.3 -0.4 1.7 -0.9 17.5 -1.2 35.3 -0.3 17.8 -0.8 37.2 -1 43.1 l-0.5 10.8 4.7 -0.6 c2.7 -0.4 10 -1.8 16.3 -3.1z m192.6 -9.5 c2.9 -5.6 4.2 -10.5 3.3 -12 -1.5 -2.5 -4.1 1.5 -5.4 8.5 -1.4 7.1 -0.5 8.5 2.1 3.5z m11.4 -31.5 c3.7 -1.5 4.5 -2.5 9.4 -12.3 2.9 -5.8 8.3 -15.7 12 -21.9 3.7 -6.2 6.5 -11.9 6.3 -12.6 -0.5 -1.4 -9.9 -2.6 -19.8 -2.6 l-5.6 0 -2.1 7.3 c-2.4 8.1 -8.2 36.8 -8.2 40.3 0 2 1.1 3.1 3.2 3.3 0.4 0.1 2.6 -0.6 4.8 -1.5z m27.1 -5.4 c1.1 -0.6 2.5 -2.3 3 -3.8 1.2 -3 0.3 -17.2 -1.1 -17.2 -2.5 0 -14.8 20.9 -13.2 22.5 0.9 0.9 8.6 -0.1 11.3 -1.5z m58.4 -12.5 c15.1 -3.4 16.3 -3.9 17.6 -7.2 1.6 -4.1 4.9 -19.3 4.9 -22.7 l0 -2.9 -15.5 0.5 c-11 0.4 -16 1 -17.2 1.9 -0.9 0.8 -2.7 3.8 -4 6.7 -3.2 7.3 -8.4 25.2 -7.7 26.4 0.9 1.4 7.3 0.6 21.9 -2.7z m-34.6 -11 c1.7 -5.2 3.4 -11.5 3.7 -14 0.8 -5.2 -0.3 -6 -7.4 -5.9 -5.7 0.1 -6.6 1.2 -4.7 5.7 0.8 2 1.8 8.1 2.1 13.6 0.5 6.9 1.1 10.1 1.9 10.1 0.7 0 2.7 -4.3 4.4 -9.5z m70.3 1 c-0.2 -1.6 -1 -4 -1.8 -5.3 -1.9 -2.8 -3.9 -1.7 -4.8 2.8 -0.9 4.6 0.2 6.2 3.8 5.8 2.8 -0.3 3.1 -0.6 2.8 -3.3z m34.1 -4.9 c7.7 -1.5 13.6 -3.1 14.7 -4.1 2.4 -2.2 8.6 -14.1 9.5 -18.2 0.8 -3.9 2.8 -3.8 -20.5 -1.8 -24.9 2.1 -28 2.7 -28 5.4 0 4.7 8.4 21.1 10.8 21.1 0.4 0 6.5 -1.1 13.5 -2.4z m54.2 -12.1 c5.5 -1.3 20.8 -4.6 34 -7.4 13.2 -2.8 31 -6.6 39.5 -8.6 8.5 -1.9 19.7 -4.1 24.8 -5 5.1 -0.9 16.6 -3.3 25.5 -5.4 8.9 -2.2 20.5 -4.7 25.9 -5.6 5.3 -0.9 10.5 -2.3 11.5 -3.1 1.6 -1.4 0.1 -1.5 -14.2 -1 -8.8 0.4 -18.9 1.1 -22.5 1.6 -3.6 0.5 -16.6 1.8 -29 3 -37.1 3.4 -101.2 12.6 -106.8 15.3 -2.1 0.9 -3.3 3 -5.5 9.5 -1.5 4.5 -2.5 8.7 -2.1 9.3 0.7 1.2 5 0.6 18.9 -2.6z m-150.4 -17.5 c2.2 -2.5 7.8 -22 14.9 -52 11.4 -48.2 14 -59.5 14.6 -63.5 0.3 -2.2 2.1 -11.6 3.9 -21 3 -15.2 4.4 -25.5 10 -74.2 0.8 -7.2 1.3 -13.7 1 -14.5 -0.2 -0.7 -0.6 -9.2 -0.9 -18.8 -0.5 -20.4 -2.1 -29.5 -7.1 -39.5 -4.2 -8.5 -8.9 -12.2 -17.1 -13.5 -6.5 -1.1 -11.7 -0.3 -25.4 3.9 -5.2 1.6 -11.5 3.5 -14 4.1 -19.1 4.9 -56.5 36 -77.7 64.4 -8.9 11.9 -10.4 14.8 -13.2 24.9 -3.1 11.3 -6 17.9 -14.6 33.4 -14 25.1 -27.8 44.6 -55.3 78.1 -11.2 13.6 -12.3 15.8 -12.9 25.2 -0.5 6.7 -0.2 9 1.7 14.2 4 11.1 9.8 17.7 23 26.5 10 6.7 11.7 7.5 25.6 12.3 14.2 4.9 34.7 8.6 53.1 9.6 14.3 0.8 17.7 0.3 19.2 -2.5 1.1 -2 16 -82.4 18.6 -100.1 1.7 -11.7 7.1 -34.9 10.6 -45.2 1 -3.2 1.9 -6.8 1.9 -8.2 0 -2.8 4.2 -6.6 7.2 -6.6 1.1 0 3.3 1.4 5 3.1 3 2.9 3.1 3.3 2.5 9.2 -0.4 3.4 -2 10.9 -3.7 16.7 -1.7 5.7 -5.7 25.1 -9 43 -3.3 17.9 -7.9 43.3 -10.3 56.5 -5.1 27.4 -6.2 35.4 -5 35.6 5.8 0.9 25.9 1.6 37.3 1.2 12.5 -0.4 14.7 -0.7 16.1 -2.3z m-250.3 -33.5 c14.9 -14.3 34.5 -35.7 41.9 -45.5 3.6 -4.9 17.4 -31 21.7 -41.5 2.3 -5.4 16.9 -28.9 24.4 -39.3 3.4 -4.8 8 -11.2 10.1 -14.2 2.1 -3 8.7 -11.5 14.5 -18.9 5.9 -7.4 11.1 -14.2 11.6 -15.1 1.5 -2.8 -0.8 -8.9 -5.1 -13 -8.6 -8.3 -30.2 -16 -49.9 -17.6 -12.9 -1.1 -51.3 2.7 -67.5 6.7 -5.6 1.4 -10 3.3 -15.1 6.6 l-7.2 4.7 -0.7 18.3 c-0.4 10 -0.5 19.2 -0.2 20.4 0.3 1.2 0.2 6 -0.3 10.8 -0.5 4.7 -1.4 16.3 -2 25.6 -0.6 9.4 -1.5 21.1 -2.1 26 -0.5 5 -1.4 29.5 -2 54.5 -0.6 25 -1.3 48.4 -1.6 51.9 l-0.6 6.5 7.8 -6.5 c4.3 -3.5 14.4 -12.7 22.3 -20.4z m416.7 17.9 c30.8 -5.2 45.5 -7.5 62.5 -9.4 9.6 -1.1 24.3 -2.9 32.5 -4 8.3 -1 23.3 -2.4 33.5 -3 19.6 -1.1 33.8 -2.5 34.6 -3.3 0.3 -0.3 -4.5 -3.9 -10.8 -7.9 -16.3 -10.7 -31.8 -21.9 -43.8 -31.7 -12.9 -10.5 -40.8 -37.8 -49.8 -48.6 -14.7 -17.7 -24.6 -28.5 -26.3 -28.5 -4 0 -14.4 19.8 -24.9 47.6 -9.2 24.3 -30 86 -30 89.1 0 2 0.5 2.3 3.8 2.3 2 0 10.5 -1.2 18.7 -2.6z m-323.3 -129.4 c6.8 -9.3 11.1 -16.6 10.6 -18.1 -0.4 -1.1 -16.1 22.1 -17.4 25.6 -1 2.8 0.4 1.3 6.8 -7.5z"/>
  <path d="M1363.4 778.3 c-1.8 -1.3 -3.4 -5 -3.4 -8 0 -2.3 1.3 -5.3 3.7 -8.2 0.2 -0.3 14 -0.9 30.6 -1.3 16.6 -0.5 31.6 -0.9 33.2 -1.1 2.5 -0.2 3.1 0.2 3.3 2.1 0.7 4.5 -2.9 6.6 -17.1 10.1 -4.7 1.2 -11 2.1 -14.1 2.1 -3 0 -10.1 0.9 -15.8 1.9 -14.2 2.7 -19.1 3.3 -20.4 2.4z"/>
  <path d="M1208.5 757.1 c-8.3 -4.8 -9.8 -7 -9.3 -13.5 0.6 -6.7 2.8 -9.6 7.4 -9.6 1.8 0 4 0.3 4.9 0.6 1.9 0.8 5.6 7.8 8 15.2 1.6 4.8 1.6 5.4 0.1 7.7 -2.1 3.3 -4.9 3.2 -11.1 -0.4z"/>
 </g>
</svg>